<?xml version="1.0" encoding="utf-8"?><svg xmlns="http://www.w3.org/2000/svg" xmlns:xlink="http://www.w3.org/1999/xlink"><symbol viewBox="0 0 792 792" id="arrow" xmlns="http://www.w3.org/2000/svg"><path d="M580.802 369.604L211.198 0l-26.396 26.396L554.405 396 184.802 765.604 211.198 792l396-396z"/></symbol><symbol viewBox="0 -54 512 512" id="certificate" xmlns="http://www.w3.org/2000/svg"><path d="M7.629 217a7.629 7.629 0 0 0 7.629-7.625V15.258h390.754a7.632 7.632 0 0 0 7.629-7.63A7.632 7.632 0 0 0 406.01 0H7.63A7.632 7.632 0 0 0 0 7.629v201.746A7.629 7.629 0 0 0 7.629 217zm0 0"/><path d="M504.371 0h-67.844a7.632 7.632 0 0 0-7.629 7.629 7.632 7.632 0 0 0 7.63 7.629h60.214v320.387H412.34V319.39c17.941-.047 10.976-.032 12.715-.032 8.5-.05 8.746-6.867 8.746-7.64 0-21.473 17.465-38.934 38.937-38.934 4.168 0 7.578-3.36 7.617-7.539.02-.976.02-1.402.032-1.605 0 5.93.062-37.008-.02-177.7-.012-4.21-3.418-7.629-7.629-7.629-33.222 0-38.226-30.21-38.957-39.476-.386-4.793-4.133-7.305-7.629-7.305H85.676c-3.719 0-7.285 2.735-7.63 7.305-.386 6.59-4.077 39.445-38.866 39.477-.07 0-7.606.101-7.63 8.37-.081 188.493-.007 158.958-.007 177.262.039 8.41 6.375 8.84 7.637 8.84 21.433.02 38.867 17.473 38.867 38.906a7.632 7.632 0 0 0 7.629 7.63l53.789.019c4.21 0 7.629-3.41 7.629-7.621a7.622 7.622 0 0 0-7.621-7.637l-46.707-.02c-3.368-23.753-22.215-42.62-45.977-45.996-.043-31.71-.008-132.093.012-164.925 25.953-2.973 41.308-21.774 45.617-46.352H419.43c3.73 21.098 17.37 43.008 45.68 46.344.046 75.187.05 90.512.09 164.91-23.84 3.336-42.77 22.238-46.13 46.078h-6.73v-37.56l8.664.437c22.687 1.156 34.332-26.836 17.434-42.101l-9.836-8.88c-3.938-3.558-3.938-9.706 0-13.242l9.836-8.89c16.867-15.238 5.316-43.215-17.434-42.102-10.7-.066-15.578 2.508-20.008-1.922s-1.855-9.316-1.922-20.007c1.16-22.684-26.84-34.325-42.101-17.434-7.59 7.496-9.25 12.785-15.512 12.785-6.277 0-7.871-5.254-15.5-12.785-15.238-16.867-43.262-5.293-42.102 17.445l.672 13.23c.274 5.27-4.039 9.626-9.36 9.368l-13.241-.68c-22.825-1.097-34.274 26.907-17.434 42.102l9.836 8.89c3.902 3.504 3.95 9.672 0 13.243l-9.836 8.879c-7.7 6.949-10.11 17.628-6.144 27.21 3.968 9.57 13.222 15.418 23.578 14.891l8.656-.437v37.574c-31.613-.012-65.871-.031-100.578-.043H170c-4.21 0-7.621 3.418-7.629 7.629a7.632 7.632 0 0 0 7.629 7.629c34.715.011 68.96.03 100.586.043v16.254H15.258v-95.758a7.632 7.632 0 0 0-7.63-7.63A7.632 7.632 0 0 0 0 239.888v103.386a7.627 7.627 0 0 0 7.629 7.63h262.957v35.78c0 13.766 15.164 22.204 26.812 15.036 43.809-26.164 42.946-27.586 45.305-26.153 42.652 25.149 43.543 28.758 51.988 28.758 9.735 0 17.649-7.914 17.649-17.64v-35.782h92.031a7.627 7.627 0 0 0 7.629-7.629V7.63A7.632 7.632 0 0 0 504.371 0zm-111.96 162.582c.218 0 6.105 5.625 16.132 5.117l13.234-.672c5.817-.293 8.137 4.133 8.696 5.493 5.215 12.48-17.399 14.722-19.883 33.8 0 0 .008.012 0 .024.008.008.008.008 0 .02 0 0 .008 0 0 .007-.004.012-.004.027-.004.04-.691-16.395-7.066-31.763-18.184-43.833.004 0 .008.004.008.004zm-47.927-22.316c.008-.008.008-.008.02 0 .105-.102 2.789-.114 6.785-1.891 7.219-3.215 9.39-7.887 17.008-15.734 3.914-4.336 8.676-2.829 10.039-2.258 12.629 5.18-2.145 22.605 9.914 38.039.012 0 .012.012.023.023 0 0 .004.004.004.008-12.07-11.117-27.441-17.492-43.84-18.183.016 0 .032 0 .047-.004zm-49.812 18.156c8.023-10.238 4.117-20.39 4.426-29.344-.426-8.41 9.91-12.66 15.53-6.437l8.892 9.843c6.984 7.715 14.53 7.422 14.902 7.782.008-.008.008-.008.02 0 .015.004.03.004.046.004-16.406.69-31.785 7.074-43.863 18.207.004-.004.043-.055.047-.055zm-39.953 24.14c-6.23-5.617-1.965-15.972 6.43-15.535l13.242.672c10.523.531 15.582-5.117 16.12-5.117.012-.008.024-.02.04-.027-11.16 12.105-17.543 27.53-18.207 43.984-1.832-13.371-11.063-16.941-17.625-23.976zm15.867 68.72l-9.43.476c-5.86.308-8.136-4.13-8.707-5.492-5.199-12.766 17.211-14.196 19.89-34.016.665 16.434 7.036 31.844 18.169 43.941-7.82-5.484-12.18-5.3-19.922-4.91zm126.496 135.402c0 1.793-1.977 3.015-3.602 2.015-42.636-25.129-43.496-28.746-52.02-28.746-8.589 0-10.097 4.043-52.007 28.746-1.687 1.012-3.61-.27-3.61-2.015v-86.73c6.938 15.71 28.11 19.702 40.118 6.405l1.992-2.207c5.703-5.5 7.41-10.566 13.508-10.566 6.11 0 7.809 5.059 13.508 10.555l2.004 2.218c12.273 13.602 33.437 8.86 40.109-6.386zm-35.125-161.118c2.777 16.207 2.746 15.883 2.746 16.09 0 .54-.66 1.192-1.433.805l-14.25-7.496a16.259 16.259 0 0 0-15.106 0c-14.992 7.847-14.328 7.629-14.707 7.629-.52 0-1.11-.547-.957-1.16l2.715-15.868a15.46 15.46 0 0 0 .234-2.746 16.32 16.32 0 0 0-4.89-11.625l-11.536-11.242c-.597-.57-.27-1.535.54-1.656l15.93-2.309a16.263 16.263 0 0 0 12.226-8.879c7.672-15.55 7.097-14.984 7.992-14.984.894 0 .297-.637 8.008 14.984a16.224 16.224 0 0 0 12.215 8.88l15.937 2.308c.82.125 1.11 1.113.54 1.656l-11.536 11.242a16.307 16.307 0 0 0-4.668 14.371zm3.371 32.204c-15.012 7.402-32.746 7.421-47.754-.008 7.578.761 11.153-3.422 23.438-9.29a.956.956 0 0 1 .906 0c13.68 6.962 16.672 9.958 23.41 9.298zm-26.726 20.746c-19.926 2.808-21.438 25.105-34.012 19.89-12.54-5.238 1.992-22.875-9.918-38.043a.311.311 0 0 1-.059-.066c12.106 11.16 27.532 17.55 43.989 18.219zm58.48-25.192c-8.957 4.172-14.422 13.352-13.926 23.14l.68 13.247c.297 5.828-4.137 8.125-5.5 8.695-12.672 5.2-14.434-17.5-33.914-19.89 11.582-.496 22.851-3.868 32.754-9.844 6.453-3.895 3.914-13.836-3.633-14.152 4.242-3.23 6.418-7.993 6.418-12.864 0-.926-.082-1.87-.246-2.797-2.805-16.414-2.735-15.937-2.735-16.039 0-.75.004-.27 11.829-11.93 9.543-9.328 4.425-25.742-9-27.687-16.368-2.543-16.227-1.984-16.66-2.851l-7.133-14.442c-2.754-5.574-8.328-9.043-14.555-9.043s-11.8 3.469-14.555 9.043c-7.406 14.672-6.898 14.848-7.851 14.973l-15.942 2.32c-13.449 1.953-18.531 18.379-8.992 27.676l11.535 11.25a.946.946 0 0 1 .285.691c0 .051 0 .114-.011.164-2.27 13.625-4.61 19.075-1.29 25.793-11.163-10.449-17.113-24.547-17.113-39.386 0-48.29 58.453-71.762 92.075-38.137 17.992 17.988 20.406 45.113 8.328 65.55-2.14 3.626-.942 8.305 2.687 10.446 3.625 2.14 8.305.945 10.45-2.688 5.773-9.769 9.035-20.855 9.519-32.222v.012c.012.011.012.011 0 .02 1.61 12.921 11.348 17.124 17.629 23.855 6.254 5.652 1.91 15.953-6.438 15.53l-9.441-.476c-2.274.078-8.05-1.3-15.254 2.043zm0 0"/><path d="M387.246 89.504a7.63 7.63 0 0 0 0-15.258H117.203a7.63 7.63 0 0 0 0 15.258zM54.648 136.8a7.627 7.627 0 0 0 7.63 7.63h187.648a7.627 7.627 0 0 0 7.629-7.63 7.627 7.627 0 0 0-7.63-7.628H62.278a7.627 7.627 0 0 0-7.629 7.629zm7.629 49.333h156.118c4.214 0 7.628-3.414 7.628-7.63s-3.414-7.628-7.628-7.628H62.277c-4.215 0-7.629 3.414-7.629 7.629s3.414 7.629 7.63 7.629zm0 41.703h165.27a7.627 7.627 0 0 0 7.629-7.629 7.627 7.627 0 0 0-7.63-7.629H62.278a7.627 7.627 0 0 0-7.629 7.629 7.627 7.627 0 0 0 7.63 7.629zM95.29 269.54h108.835a7.63 7.63 0 0 0 0-15.258H95.289a7.63 7.63 0 0 0 0 15.257zm0 0"/></symbol><symbol viewBox="0 0 512 511" id="company" xmlns="http://www.w3.org/2000/svg"><path d="M504.395 296.52h-28.083V186.168h28.083a7.607 7.607 0 0 0 5.906-2.813 7.607 7.607 0 0 0 1.535-6.363L475.856 6.535A7.605 7.605 0 0 0 468.413.5h-358.41a7.604 7.604 0 0 0 0 15.207h352.242l32.774 155.254h-18.707v-12.516a7.607 7.607 0 0 0-7.606-7.605h-164.77a7.607 7.607 0 0 0-7.605 7.605v12.516H16.98L49.754 15.707h34.902a7.604 7.604 0 1 0 0-15.207h-41.07a7.605 7.605 0 0 0-7.441 6.035L.165 176.992a7.607 7.607 0 0 0 1.534 6.363 7.607 7.607 0 0 0 5.906 2.813h28.083V503.59c0 4.2 3.406 7.601 7.605 7.601l461.102-.004a7.603 7.603 0 0 0 7.601-7.605V384.516a7.604 7.604 0 1 0-15.207 0v111.46H286.4v-184.25h58.05v87.7a7.601 7.601 0 0 0 3.77 6.566 7.603 7.603 0 0 0 7.57.059l35.805-20.2 35.804 20.2a7.58 7.58 0 0 0 3.735.98 7.633 7.633 0 0 0 3.836-1.035 7.614 7.614 0 0 0 3.77-6.566v-87.7h58.05v47.438a7.603 7.603 0 1 0 15.207 0v-55.043c0-4.2-3.402-7.605-7.601-7.605zm-96.797-130.47v48.981l-17.54-9.894a7.622 7.622 0 0 0-3.734-.98 7.616 7.616 0 0 0-3.738.98l-17.54 9.894v-48.98zM89.878 495.978v-258.31H222.18v258.309zM278.794 296.52a7.607 7.607 0 0 0-7.606 7.605v191.86h-33.796V230.061a7.607 7.607 0 0 0-7.606-7.605H82.273a7.604 7.604 0 0 0-7.601 7.605v265.922H50.895V186.18h245.437v110.34zm32.746-130.47h38.3v62a7.601 7.601 0 0 0 3.77 6.567 7.603 7.603 0 0 0 7.57.059l25.141-14.184 25.145 14.184a7.58 7.58 0 0 0 3.734.98 7.633 7.633 0 0 0 3.836-1.035 7.614 7.614 0 0 0 3.77-6.566V166.05h38.3v130.47H311.54zm111.988 220.356l-28.2-15.906a7.58 7.58 0 0 0-3.734-.98c-1.29 0-2.578.324-3.739.98l-28.199 15.906v-74.68h63.871zm0 0"/><path d="M196.078 257.277h-80.094a7.601 7.601 0 0 0-7.605 7.602v106.457c0 4.2 3.402 7.605 7.605 7.605h80.094c4.2 0 7.602-3.406 7.602-7.605V264.879a7.6 7.6 0 0 0-7.602-7.602zm-7.605 53.227h-24.84v-38.02h24.84zm-40.047-38.02v38.02h-24.84v-38.02zm-24.84 53.227h24.84v38.02h-24.84zm40.047 38.02v-38.02h24.84v38.02zm32.445 27.374h-14.09a7.604 7.604 0 0 0 0 15.207h14.09a7.6 7.6 0 0 0 7.602-7.601c0-4.2-3.403-7.606-7.602-7.606zM48.66 120.91a7.604 7.604 0 0 0 7.606 7.606h399.46a7.604 7.604 0 1 0 0-15.207H56.267a7.604 7.604 0 0 0-7.606 7.601zm377.668-61.539H85.664a7.601 7.601 0 0 0-7.602 7.606 7.6 7.6 0 0 0 7.602 7.601h340.664a7.604 7.604 0 1 0 0-15.207zm0 0"/></symbol><symbol viewBox="-70 0 512 512" id="contract" xmlns="http://www.w3.org/2000/svg"><path d="M365.45 468.25c-4.13-.656-8.02 2.16-8.677 6.293-1.988 12.379-12.195 21.516-24.597 22.234-.008.008-.02 0-.02 0-8.855-1.484-15.68-9.562-15.68-18.71v-19.438c0-6.2-5.038-11.238-11.238-11.238H55.555V318.02c0-4.18-3.39-7.575-7.57-7.575s-7.575 3.395-7.575 7.575v129.37H11.238C5.04 447.39 0 452.43 0 458.63v19.437c0 17.567 13.668 33.918 35.07 33.918 311.368 0 297.028.07 297.907-.07.007.008.02 0 .02 0 19.515-1.101 35.612-15.473 38.733-34.988a7.58 7.58 0 0 0-6.28-8.676zM33.917 496.836c-10.352 0-18.773-8.422-18.773-18.77v-15.53h286.183c.777 10.956-2.555 21.85 5.594 34.3H33.918zM369.559 74.707c-3.579-7.41-3.227-4.637-65.797-67.004A26.676 26.676 0 0 0 284.953 0H53.012C46.066 0 40.41 5.656 40.41 12.602v275.125c0 4.18 3.395 7.574 7.574 7.574s7.57-3.395 7.57-7.574V15.145c48.223.003 228.747-.008 229.704.015v50.375c0 11.242 9.148 20.387 20.39 20.387h51.438c.035.89.02 280.933.023 359.55a7.573 7.573 0 0 0 15.145 0c-.813-375.269 2.187-361.87-2.695-370.765zm-63.91-3.93a5.248 5.248 0 0 1-5.243-5.242V25.656l45.809 45.121zm0 0"/><path d="M320.57 130.895a7.574 7.574 0 0 0 7.575-7.575 7.57 7.57 0 0 0-7.575-7.57h-36.636a7.57 7.57 0 0 0-7.575 7.57 7.574 7.574 0 0 0 7.575 7.575zm-228.488 0h161.559a7.574 7.574 0 0 0 7.574-7.575 7.57 7.57 0 0 0-7.574-7.57H92.082a7.57 7.57 0 0 0-7.574 7.57 7.574 7.574 0 0 0 7.574 7.575zm0 51.636H320.57a7.573 7.573 0 1 0 0-15.144H92.082a7.573 7.573 0 0 0 0 15.145zm0 51.641H320.57a7.574 7.574 0 1 0 0-15.149H92.082c-4.184 0-7.574 3.391-7.574 7.575s3.39 7.574 7.574 7.574zm0 51.637H320.57a7.574 7.574 0 1 0 0-15.149H92.082c-4.184 0-7.574 3.39-7.574 7.574s3.39 7.575 7.574 7.575zm174.434 125.175a7.572 7.572 0 1 0-.688 15.129c32.145 1.453 55.332-29.625 50.633-44.734-2.258-7.277-9.36-10.219-12.77-11.633a1963.276 1963.276 0 0 0-46.023-18.387c1.832-6.347 3.07-12.964 3.559-19.886.835-11.938-11.532-20.282-22.282-15.075-12.547 6.079-18.703 9.325-21.449 16.637-4.566 12.16 4.863 21.192 17.578 25.945a799.1 799.1 0 0 0 3.137 1.176c-8.938 19.602-23.883 36.903-37.594 52.77a7.572 7.572 0 0 0 .781 10.68 7.568 7.568 0 0 0 10.68-.778c14.684-16.992 30.68-35.508 40.371-57.25 2.293.883 47.563 18.39 49.496 20.313-.082 1.68-1.86 7.16-7.605 13.242-4.442 4.695-13.961 12.449-27.824 11.851zm-23.09-65.046c-17.516-6.59-14.504-7.856 2.117-15.907a.391.391 0 0 1 .574.38c-.375 5.331-1.308 10.503-2.691 15.526zm0 0"/></symbol><symbol viewBox="0 -15 512 512" id="graph" xmlns="http://www.w3.org/2000/svg"><path d="M68.926 246.8H7.606A7.604 7.604 0 0 0 0 254.403v220.211c0 4.2 3.406 7.606 7.605 7.606h61.32c4.2 0 7.606-3.406 7.606-7.606v-69.492c0-4.2-3.406-7.601-7.605-7.601s-7.602 3.402-7.602 7.601v61.89H15.207V262.009h46.117v117.765a7.605 7.605 0 0 0 15.207 0v-125.37c0-4.2-3.406-7.602-7.605-7.602zm108.867 70.763h-61.32a7.604 7.604 0 0 0-7.606 7.601v149.45a7.607 7.607 0 0 0 7.606 7.605h61.32a7.604 7.604 0 0 0 7.605-7.606V325.164a7.6 7.6 0 0 0-7.605-7.601zm-7.602 149.449h-46.117V332.77h46.117zm116.473-267.387H225.34a7.604 7.604 0 0 0-7.606 7.602v267.386c0 4.2 3.407 7.606 7.606 7.606h61.324c4.2 0 7.602-3.406 7.602-7.606V207.227a7.6 7.6 0 0 0-7.602-7.602zm-7.605 267.387H232.94v-252.18h46.118zm116.472-232.004h-61.324a7.604 7.604 0 0 0-7.605 7.601v232.004c0 4.2 3.406 7.606 7.605 7.606h61.324c4.2 0 7.602-3.406 7.602-7.606V242.61a7.6 7.6 0 0 0-7.602-7.601zm-7.605 232.004h-46.117V250.215h46.117zm116.469-338.149h-61.32a7.604 7.604 0 0 0-7.606 7.602V236.82a7.604 7.604 0 0 0 15.207 0v-92.75h46.117v322.942h-46.117v-204.84a7.604 7.604 0 1 0-15.207 0v212.441c0 4.2 3.406 7.606 7.605 7.606h61.32c4.2 0 7.606-3.406 7.606-7.606V136.465c0-4.2-3.406-7.602-7.605-7.602zm0 0"/><path d="M452.195 69.875a38.064 38.064 0 0 0 21.54 6.656c21.1 0 38.265-17.168 38.265-38.265C512 17.164 494.836 0 473.734 0S435.47 17.164 435.47 38.266a38.037 38.037 0 0 0 6.117 20.714l-55.184 53.817a38.039 38.039 0 0 0-21.535-6.652c-14.262 0-26.715 7.847-33.297 19.445l-37.562-12.2a38.32 38.32 0 0 0 .258-4.363c0-21.097-17.168-38.265-38.266-38.265-21.102 0-38.266 17.168-38.266 38.265 0 8.352 2.7 16.086 7.258 22.383l-58.015 62.848a38.06 38.06 0 0 0-19.844-5.559c-10.672 0-20.332 4.395-27.278 11.465l-46.011-29.902a38.07 38.07 0 0 0 2.687-14.059c0-21.101-17.168-38.266-38.27-38.266C17.165 117.938 0 135.102 0 156.203c0 21.098 17.164 38.266 38.266 38.266 10.671 0 20.332-4.399 27.28-11.469l46.009 29.902a38.075 38.075 0 0 0-2.688 14.063c0 21.101 17.168 38.265 38.266 38.265 21.101 0 38.27-17.164 38.27-38.265 0-8.352-2.7-16.082-7.258-22.383l58.015-62.848a38.014 38.014 0 0 0 19.844 5.559c14.258 0 26.715-7.848 33.297-19.445l37.558 12.199a38.324 38.324 0 0 0-.254 4.363c0 21.102 17.165 38.266 38.266 38.266 21.102 0 38.266-17.164 38.266-38.266a38.017 38.017 0 0 0-6.117-20.715zM38.265 179.262c-12.714 0-23.058-10.344-23.058-23.059s10.344-23.058 23.059-23.058 23.058 10.343 23.058 23.058-10.344 23.059-23.058 23.059zm108.868 70.761c-12.715 0-23.059-10.343-23.059-23.058s10.344-23.059 23.059-23.059c12.715 0 23.058 10.344 23.058 23.059s-10.343 23.058-23.058 23.058zM256 132.086c-12.715 0-23.059-10.344-23.059-23.059S243.285 85.97 256 85.97s23.059 10.344 23.059 23.058-10.344 23.059-23.059 23.059zM473.734 15.207c12.715 0 23.059 10.344 23.059 23.059s-10.344 23.058-23.059 23.058-23.058-10.344-23.058-23.058 10.344-23.059 23.058-23.059zM364.867 167.465c-12.715 0-23.058-10.34-23.058-23.055s10.343-23.058 23.058-23.058 23.059 10.343 23.059 23.058-10.344 23.055-23.059 23.055zm0 0"/></symbol><symbol viewBox="0 -1 512 511" id="hands" xmlns="http://www.w3.org/2000/svg"><path d="M168.89 200.688a7.582 7.582 0 0 0 7.583 7.582H335.5a7.581 7.581 0 0 0 0-15.16H176.473a7.581 7.581 0 0 0-7.582 7.577zm169.645 44.102a7.581 7.581 0 0 0-7.578-7.583H181.016a7.581 7.581 0 0 0 0 15.16h149.941a7.578 7.578 0 0 0 7.578-7.578zm-152.797 36.519a7.581 7.581 0 1 0 0 15.16h140.496a7.581 7.581 0 0 0 0-15.16zM216.23 39.133h-72.44c-4.185 0-7.58 3.394-7.58 7.582s3.395 7.582 7.58 7.582h72.44c4.188 0 7.579-3.395 7.579-7.582s-3.391-7.582-7.579-7.582zm-72.44 69.312h72.44a7.578 7.578 0 0 0 7.579-7.578 7.579 7.579 0 0 0-7.579-7.582h-72.44a7.581 7.581 0 0 0 0 15.16zm0 54.153h72.44a7.579 7.579 0 0 0 7.579-7.582 7.578 7.578 0 0 0-7.579-7.578h-72.44a7.58 7.58 0 0 0 0 15.16zm192.394 162.808H175.793a7.581 7.581 0 0 0 0 15.16h160.39a7.58 7.58 0 0 0 0-15.16zm24.754 51.68a7.578 7.578 0 0 0-7.579-7.578H224.99a7.58 7.58 0 0 0 0 15.16h128.37a7.581 7.581 0 0 0 7.579-7.582zm-158.692 0a7.578 7.578 0 0 0-7.578-7.578h-36.05c-4.188 0-7.583 3.39-7.583 7.578s3.395 7.582 7.582 7.582h36.051a7.581 7.581 0 0 0 7.578-7.582zm141.516 44.102a7.581 7.581 0 0 0-7.578-7.583H175.793a7.582 7.582 0 1 0 0 15.165h160.39a7.581 7.581 0 0 0 7.579-7.583zM187.93 457.703a7.582 7.582 0 1 0 0 15.164h136.117c4.183 0 7.578-3.394 7.578-7.582s-3.395-7.582-7.578-7.582zm0 0"/><path d="M493.195 418.18h-11.101v-56.52c0-17.597 5.488-25.984 20.43-58.98 14.578-32.235 11.136-71.653-2.165-104.473a6.802 6.802 0 0 0-.261-.578C454.164 106.934 446 90.797 445.465 89.769a32.568 32.568 0 0 0-26.785-17.05V16.773C418.68 7.797 411.37.5 402.406.5H169.594a7.581 7.581 0 0 0 0 15.16h232.812c.606 0 1.114.496 1.114 1.113V75.5c-15.86 7.016-23.594 25.594-17.004 41.965l17.004 44.07v51.824c-13.485-11.55-40.63-18.34-44.293 10.895-11.063 67.527-10.813 65.969-10.836 66.176-2.797 22.312 4.386 41.039 18.96 58.16 13.801 13.785 12.383 48.09 12.192 68.933 0 .223 0 .434-.012.657H367.09c-8.945 0-16.223 7.277-16.223 16.222.012 62.883-.031 59.309.04 60.141h-189.84c.07-.836.027 2.805.038-60.14 0-8.946-7.277-16.223-16.222-16.223H132.44c-.011-.223-.011-.434-.011-.657-.262-28.543-.528-55.511 12.02-68.753.058-.06.109-.122.171-.18l.027-.031c5.43-5.73 22.856-26.848 18.934-58.13-.012-.09-.02-.183-.039-.28l-10.797-65.895c-3.594-28.668-30.223-22.953-44.293-10.895v-51.824l17.004-44.07c6.559-16.3-1.062-34.899-17.004-41.977V16.773c0-.617.508-1.113 1.113-1.113h29.707a7.58 7.58 0 0 0 0-15.16h-29.707c-8.964 0-16.273 7.297-16.273 16.273V72.72c-12.61.746-23.477 9.18-27.148 17.75-39.758 78.523-54.313 107.21-54.532 107.738C3.121 219.16-.75 240.68.121 262.16c.992 24.395 7.242 36.082 15.809 54.64 10.148 21.946 13.945 30.153 13.945 44.86v56.52H18.777c-8.933 0-16.21 7.277-16.21 16.222v59.082c0 8.946 7.277 16.223 16.21 16.223h474.418c8.934 0 16.211-7.277 16.211-16.223v-21.976a7.581 7.581 0 0 0-15.16 0v21.976c0 .586-.476 1.059-1.05 1.059-133.766 0-127.169.59-127.169-1.059v-59.082a1.06 1.06 0 0 1 1.063-1.058h126.105c.575 0 1.051.472 1.051 1.058v6.786a7.58 7.58 0 0 0 15.16 0v-6.786c0-8.945-7.277-16.222-16.21-16.222zM23.265 296.434c-12.769-28.196-9.343-63.403 2.274-92.235C43.152 169.418 79.65 97.262 79.75 97.16c.094-.101 4.05-8.176 13.543-9.219 13.2-1.484 22.969 11.82 18.082 23.895-.3 1.195-32.66 84.652-32.707 84.773-10.324 26.805-11.395 60.602-11.395 58.778-.5 13.949 12.696 24.27 26.02 20.61 8.734-2.388 15.16-10.384 15.16-19.852V246.5c0-12.938 8.524-24.145 20.723-27.27 4.234-1.082 5.71-.382 6.054-.152 2.852 2 2.61 12.766 13.32 73.371 3.024 24.613-10.632 41.18-14.898 45.668a4.818 4.818 0 0 0-.312.344c-17.176 18.262-16.348 50.129-16.07 79.719H45.04v-56.52c0-21.453-6.856-32.258-21.774-65.226zm70.028-95.598v55.309c0 4.843-5.95 7.261-9.352 3.757-1.652-1.703-1.496-3.867-1.515-3.968.71-19.446 6.765-44.473 10.39-53.868zm51.59 293.707H18.777c-.574 0-1.05-.473-1.05-1.059v-59.082c0-.586.476-1.058 1.05-1.058h126.106a1.06 1.06 0 0 1 1.062 1.058c-.476 60.239.993 60.141-1.062 60.141zm322.05-76.363h-72.23c.238-25.453 1.633-62.047-16.383-80.063-4.265-4.488-17.922-21.055-14.898-45.668 11.672-71.242 11.226-71.902 13.32-73.37.344-.231 1.82-.93 6.055.151 12.2 3.125 20.723 14.332 20.723 27.27v9.645c0 18.386 22.539 27.656 35.418 14.28 4.085-4.241 5.972-9.726 5.757-15.05a173.305 173.305 0 0 0-3.324-27.996c-5.383-26.59-3.648-19.324-40.734-115.43-3.621-10.867 1.707-19.664 9.582-22.844 8.426-3.414 18.133.301 22.047 8.125l54.168 106.97c11.609 28.82 15.046 64.03 2.273 92.234-14.906 32.941-21.773 43.796-21.773 65.226zM418.68 256.145v-55.31c.28.9 3.27 7.04 7.832 29.556a158.071 158.071 0 0 1 3.035 25.543 5.422 5.422 0 0 1-5.438 5.628c-2.992 0-5.43-2.425-5.43-5.417zm0 0"/><path d="M260.086 162.898h101.668a7.582 7.582 0 0 0 7.582-7.582V46.152a7.582 7.582 0 0 0-7.582-7.582H250.57a7.582 7.582 0 0 0-7.582 7.582v109.164a7.582 7.582 0 0 0 7.582 7.582zm7.945-15.164c2.059-12.035 12.567-21.226 25.18-21.226h25.898c12.614 0 23.121 9.191 25.18 21.226zm23.473-63.507c0-8.082 6.574-14.657 14.656-14.657s14.656 6.575 14.656 14.657c0 8.078-6.574 14.656-14.656 14.656s-14.656-6.574-14.656-14.656zm-33.356-30.493h96.024v77.676c-7.09-11.996-20.149-20.062-35.063-20.062h-.582c10.286-4.707 17.45-15.09 17.45-27.121 0-16.442-13.375-29.82-29.817-29.82s-29.816 13.378-29.816 29.82c0 12.03 7.164 22.414 17.449 27.12h-.582c-14.914 0-27.973 8.067-35.063 20.063zm0 0"/></symbol><symbol viewBox="0 0 512 511" id="job" xmlns="http://www.w3.org/2000/svg"><path d="M499.375 49.984H297.746l-5.828-38.742C290.98 5.016 285.734.5 279.441.5H167.687c-6.292 0-11.539 4.516-12.476 10.742l-5.813 38.645-5.812-38.645C142.652 5.016 137.402.5 131.109.5h-27.28a7.574 7.574 0 0 0-7.575 7.574 7.574 7.574 0 0 0 7.574 7.574h25.106l5.164 34.336H16.37l5.164-34.336h52c4.18 0 7.574-3.39 7.574-7.574A7.576 7.576 0 0 0 73.535.5H19.36C13.066.5 7.816 5.02 6.883 11.242L.086 56.434c-.008.046-.008.097-.016.148-.02.152-.03.305-.043.461-.007.117-.015.234-.02.352 0 .054-.007.105-.007.164v441.304c0 6.961 5.664 12.625 12.625 12.625h486.75c6.96 0 12.625-5.664 12.625-12.625V62.605c0-6.96-5.664-12.62-12.625-12.62zM169.867 15.648h107.395l5.164 34.336H164.703zM496.852 496.34H15.148V126.738h481.704zm0-384.75H15.148V65.129h481.704zm0 0"/><path d="M25.922 87.852a7.574 7.574 0 0 0 7.574 7.574h403.27a7.57 7.57 0 0 0 7.57-7.574 7.57 7.57 0 0 0-7.57-7.575H33.496a7.574 7.574 0 0 0-7.574 7.575zm28.445 336.273H316.93a7.573 7.573 0 1 0 0-15.145H54.367a7.573 7.573 0 0 0 0 15.145zm403.266-15.145h-110.41a7.573 7.573 0 0 0 0 15.145h110.41a7.573 7.573 0 1 0 0-15.145zm0 42.41H54.367c-4.183 0-7.574 3.391-7.574 7.575s3.39 7.574 7.574 7.574h403.266c4.183 0 7.574-3.39 7.574-7.574s-3.39-7.574-7.574-7.574zm20.871-363.538c0 5.578-4.52 10.097-10.098 10.097s-10.097-4.52-10.097-10.097c0-5.579 4.52-10.098 10.097-10.098s10.098 4.52 10.098 10.098zM51.371 385.004H460.63c12.867 0 23.336-10.469 23.336-23.332V179.617c0-12.867-10.469-23.336-23.336-23.336H188.113a7.576 7.576 0 0 0-7.574 7.574 7.574 7.574 0 0 0 7.574 7.575H460.63c4.516 0 8.187 3.672 8.187 8.187v182.055c0 4.512-3.671 8.183-8.187 8.183H51.37c-4.516 0-8.187-3.671-8.187-8.183V179.617c0-4.515 3.671-8.187 8.187-8.187h106.445a7.574 7.574 0 0 0 7.575-7.575 7.576 7.576 0 0 0-7.575-7.574H51.371c-12.867 0-23.336 10.469-23.336 23.336v182.055c0 12.863 10.469 23.332 23.336 23.332zm0 0"/><path d="M159.363 307.36c-13.468 0-18.824-8.602-19.148-18.34-.164-4.383-4.059-5.68-8.438-5.68-5.843 0-8.765 1.785-8.765 8.277 0 18.824 15.254 30.996 37.004 30.996 19.96 0 36.027-9.898 36.027-36.191v-77.735c0-3.734-3.895-5.68-7.629-5.68h-28.562c-4.059 0-5.68 3.895-5.68 7.466 0 4.218 2.11 7.789 5.68 7.789h18.988v68.16c0 14.285-7.14 20.937-19.477 20.937zm129.344-20.934v-47.23c0-26.29-16.07-36.188-36.516-36.188-20.613 0-36.355 9.898-36.355 36.187v47.23c0 26.29 15.742 36.188 36.355 36.188 20.446 0 36.516-9.898 36.516-36.187zm-55.668 0v-47.23c0-14.282 6.98-20.934 19.152-20.934 12.008 0 19.313 6.652 19.313 20.933v47.23c0 14.282-7.305 20.934-19.313 20.934-12.171 0-19.152-6.652-19.152-20.933zm145.734-55.344c0-22.883-15.418-28.074-32.785-28.074h-29.535c-3.894 0-7.629 1.945-7.629 5.68V316.12c0 2.922 2.922 5.52 7.63 5.52h32.944c18.176 0 32.293-8.926 32.293-34.082v-3.082c0-16.555-6.652-23.207-16.714-27.102 8.437-3.734 13.796-12.82 13.796-26.293zm-52.91-12.82h18.989c10.226 0 16.718 4.707 16.718 15.582 0 11.035-5.36 16.715-16.39 16.715h-19.313v-32.297zm38.625 68c0 13.957-6.816 20.125-18.336 20.125h-20.289V264.19h20.29c11.519 0 18.335 5.192 18.335 19.473zm0 0"/></symbol><symbol viewBox="-92 0 512 512" id="list" xmlns="http://www.w3.org/2000/svg"><path d="M310.04 43.473h-95.974C210.395 18.906 189.148 0 163.57 0c-25.574 0-46.82 18.906-50.496 43.473H17.105C7.672 43.473 0 51.145 0 60.578v434.317C0 504.328 7.672 512 17.105 512H310.04c9.434 0 17.106-7.672 17.106-17.105V60.578c0-9.433-7.672-17.105-17.106-17.105zM95.554 58.653h24.547a7.593 7.593 0 0 0 7.59-7.59c0-2.602.273-5.141.808-7.59 3.492-16.157 17.887-28.29 35.07-28.29 17.188 0 31.578 12.133 35.07 28.29a35.21 35.21 0 0 1 .813 7.59 7.59 7.59 0 0 0 7.59 7.59h24.543v40.355H95.555V58.652zM311.96 494.894a1.92 1.92 0 0 1-1.922 1.921H17.105c-3.8 0-1.011 25.02-1.921-436.238 0-1.062.859-1.926 1.921-1.926h63.27V75.18H43.238c-6.355 0-11.539 5.175-11.539 11.539v136.578a7.597 7.597 0 0 0 7.594 7.594c4.2 0 7.59-3.403 7.59-7.594V90.363h33.492v9.485c0 7.906 6.438 14.34 14.352 14.34h137.691c7.914 0 14.352-6.434 14.352-14.34v-9.485h33.492V465.11H46.882V253.66c0-4.2-3.39-7.59-7.589-7.59a7.589 7.589 0 0 0-7.594 7.59v215.09c0 6.367 5.184 11.54 11.54 11.54h240.667c6.356 0 11.535-5.173 11.535-11.54V86.719c0-6.364-5.18-11.54-11.535-11.54H246.77V58.653h63.27c1.062 0 1.92.864 1.92 1.926zm0 0"/><path d="M72.117 142.465h182.91c4.192 0 7.594-3.399 7.594-7.59s-3.402-7.59-7.594-7.59H72.117c-4.195 0-7.594 3.399-7.594 7.59s3.399 7.59 7.594 7.59zm-.004 30.844h131.578c4.192 0 7.594-3.403 7.594-7.59a7.597 7.597 0 0 0-7.594-7.594H72.113c-4.187 0-7.59 3.402-7.59 7.594a7.595 7.595 0 0 0 7.59 7.59zm182.914-15.184H234.06a7.597 7.597 0 0 0-7.594 7.594c0 4.187 3.402 7.59 7.594 7.59h20.968c4.192 0 7.594-3.403 7.594-7.59a7.597 7.597 0 0 0-7.594-7.594zM72.113 281.082h75.953a7.594 7.594 0 0 0 7.59-7.594V197.54a7.59 7.59 0 0 0-7.59-7.59H72.113a7.593 7.593 0 0 0-7.59 7.59v75.95c0 4.19 3.403 7.593 7.59 7.593zm7.594-75.953h54.473l-23.473 30.308-7.336-9.714a7.596 7.596 0 0 0-10.633-1.485 7.59 7.59 0 0 0-1.484 10.633l13.316 17.64a7.597 7.597 0 0 0 6.012 3.016h.047a7.582 7.582 0 0 0 6-2.945l23.844-30.789v44.105H79.707zm175.32-15.179h-75.949a7.59 7.59 0 0 0-7.59 7.59v75.948a7.594 7.594 0 0 0 7.59 7.594h75.95a7.597 7.597 0 0 0 7.593-7.594V197.54a7.594 7.594 0 0 0-7.594-7.59zm-7.59 75.948h-60.769v-60.77h54.477l-23.473 30.31-7.336-9.715a7.596 7.596 0 0 0-10.633-1.485 7.59 7.59 0 0 0-1.484 10.633l13.316 17.64a7.597 7.597 0 0 0 6.012 3.016h.047a7.582 7.582 0 0 0 6-2.945l23.844-30.785zm15.18 38.062a7.59 7.59 0 0 0-7.59-7.589H72.117a7.592 7.592 0 0 0 0 15.184h182.91a7.591 7.591 0 0 0 7.59-7.594zM72.113 342.395h20.973a7.59 7.59 0 0 0 0-15.18H72.113a7.593 7.593 0 0 0-7.59 7.59 7.593 7.593 0 0 0 7.59 7.59zm182.914-15.18H123.45a7.593 7.593 0 0 0-7.59 7.59 7.593 7.593 0 0 0 7.59 7.59h131.578a7.594 7.594 0 0 0 7.594-7.59 7.594 7.594 0 0 0-7.594-7.59zM72.113 450.168h75.953a7.59 7.59 0 0 0 7.59-7.59v-75.953a7.593 7.593 0 0 0-7.59-7.59H72.113a7.595 7.595 0 0 0-7.59 7.59v75.953a7.593 7.593 0 0 0 7.59 7.59zm7.594-75.95h54.469l-23.473 30.31-7.336-9.716a7.589 7.589 0 0 0-10.633-1.484c-3.343 2.524-4.007 7.285-1.48 10.633l13.316 17.637a7.597 7.597 0 0 0 6.012 3.015h.047a7.582 7.582 0 0 0 6-2.945l23.844-30.79v44.106h-60.77V374.22zm175.32-15.183h-75.949a7.593 7.593 0 0 0-7.59 7.59v75.953a7.59 7.59 0 0 0 7.59 7.59h75.95a7.594 7.594 0 0 0 7.593-7.59v-75.953c0-4.188-3.402-7.59-7.594-7.59zm-7.59 75.953h-60.769v-60.77h54.473l-23.47 30.31-7.335-9.716c-2.527-3.347-7.285-4.011-10.633-1.484s-4.012 7.285-1.484 10.633l13.316 17.637a7.586 7.586 0 0 0 6.012 3.015h.047a7.59 7.59 0 0 0 6-2.941l23.844-30.79zm0 0"/></symbol><symbol viewBox="-34 0 512 512" id="notebook" xmlns="http://www.w3.org/2000/svg"><path d="M444.902 130.813V84.43c0-12.793-9.097-23.953-21.632-26.528l-28.356-5.82v-7.144C394.914 20.16 374.758 0 349.977 0H43.657c-10.08 0-18.279 8.2-18.279 18.277v54.836H7.586A7.584 7.584 0 0 0 0 80.7a7.583 7.583 0 0 0 7.586 7.582h17.793v54.953H7.586A7.583 7.583 0 0 0 0 150.816a7.584 7.584 0 0 0 7.586 7.586h17.793v54.953H7.586A7.583 7.583 0 0 0 0 220.938a7.584 7.584 0 0 0 7.586 7.585h17.793v54.954H7.586A7.584 7.584 0 0 0 0 291.063a7.583 7.583 0 0 0 7.586 7.582h17.793v54.953H7.586A7.584 7.584 0 0 0 0 361.184a7.583 7.583 0 0 0 7.586 7.582h17.793v54.953H7.586A7.583 7.583 0 0 0 0 431.3a7.584 7.584 0 0 0 7.586 7.586h17.793v54.836c0 10.078 8.2 18.277 18.277 18.277h306.32c24.782 0 44.938-20.16 44.938-44.938v-7.171l28.473-5.98c12.468-2.618 21.515-13.763 21.515-26.5v-25.884a7.584 7.584 0 0 0-7.586-7.586 7.583 7.583 0 0 0-7.582 7.586v25.883c0 5.602-3.98 10.504-9.46 11.652l-25.36 5.329v-80.223l25.305 5.195c3.414.7 6.344 2.856 8.035 5.91 2.027 3.668 6.644 4.997 10.309 2.965s4.992-6.644 2.96-10.308a27.034 27.034 0 0 0-17.085-13.153c11.917-3.011 20.464-13.859 20.464-26.234v-46.379c0-12.406-8.562-23.246-20.507-26.242 11.94-2.996 20.507-13.856 20.507-26.242V183.3c0-12.405-8.558-23.245-20.504-26.245 11.938-2.996 20.504-13.856 20.504-26.243zM99.617 496.832h-55.96a3.11 3.11 0 0 1-3.106-3.105v-54.84h16.59a7.583 7.583 0 0 0 7.586-7.582 7.584 7.584 0 0 0-7.586-7.586H40.55v-54.95h16.59a7.586 7.586 0 0 0 0-15.171H40.55v-54.95h16.59c4.191 0 7.586-3.394 7.586-7.585s-3.395-7.586-7.586-7.586H40.55v-54.954h16.59a7.583 7.583 0 0 0 7.586-7.582 7.584 7.584 0 0 0-7.586-7.586H40.55v-54.949h16.59a7.586 7.586 0 0 0 0-15.172H40.55V88.285h16.59a7.586 7.586 0 0 0 0-15.172H40.55V18.277c0-1.71 1.39-3.105 3.105-3.105h55.961zM379.747 58.27v408.797c0 16.413-13.356 29.765-29.77 29.765H114.789V15.172h235.188c16.414 0 29.77 13.351 29.77 29.766zm49.987 223.894v46.379c0 5.602-3.98 10.504-9.46 11.656l-25.36 5.324v-80.222l25.305 5.195c5.511 1.133 9.515 6.04 9.515 11.668zm0-98.867v46.379c0 5.601-3.98 10.504-9.46 11.656l-25.36 5.324v-80.222l25.305 5.199c5.511 1.129 9.515 6.039 9.515 11.664zm0-52.485c0 5.602-3.98 10.504-9.46 11.653l-25.36 5.328V67.57l25.305 5.196c5.515 1.132 9.515 6.039 9.515 11.664zm0 0"/><path d="M335.941 73.113h-179.59a7.586 7.586 0 0 0 0 15.172h179.59a7.586 7.586 0 0 0 0-15.172zm0 40.453h-179.59a7.586 7.586 0 0 0 0 15.172h179.59a7.586 7.586 0 0 0 0-15.172zm0 40.457h-179.59a7.586 7.586 0 0 0-7.585 7.586 7.585 7.585 0 0 0 7.586 7.582h179.59a7.583 7.583 0 0 0 7.585-7.582 7.584 7.584 0 0 0-7.586-7.586zm0 270.02h-179.59a7.586 7.586 0 0 0-7.585 7.586 7.585 7.585 0 0 0 7.586 7.582h179.59a7.583 7.583 0 0 0 7.585-7.582 7.584 7.584 0 0 0-7.586-7.586zm0 0"/></symbol><symbol viewBox="-52 0 512 512.001" id="winner" xmlns="http://www.w3.org/2000/svg"><path d="M364.824 297.07c.04.004.078.004.121.008-.039-.004-.078-.004-.12-.008zm-.434-.02c.051 0 .094.005.137.009-.05-.004-.097-.008-.136-.008zm.848.044c.032 0 .059.004.094.004l-.094-.004zm0 0"/><path d="M394.082 240.934l-19.84-17.91c-11.36-10.282-11.402-28.04 0-38.356l19.84-17.91c28.73-25.961 8.441-73.23-29.5-71.235l-26.695 1.368c-14.825.777-27.157-11.086-27.157-25.758 0-.95-.03.172 1.395-28.043 1.977-38.016-45.305-58.262-71.219-29.512l-17.91 19.832c-10.219 11.313-28.02 11.445-38.355 0l-17.91-19.832c-19.25-21.324-52.208-16.289-65.727 6.567a7.547 7.547 0 0 0 2.644 10.332 7.539 7.539 0 0 0 10.332-2.657c8.266-13.988 29.036-18.02 41.563-4.14l17.91 19.84c16.223 17.976 44.508 17.972 60.727 0l17.914-19.84c15.879-17.594 45.015-6.375 45.015 17.136 0 2.293-1.457 27.383-1.457 30.317 0 22.531 18.344 40.867 40.88 40.867 3.417 0 27.62-1.45 30.312-1.45 23.515 0 34.73 29.141 17.136 45.02l-19.84 17.91c-18 16.25-17.968 44.508 0 60.73l19.84 17.911c17.95 16.2 5.926 46.227-18.632 44.977h-.016l-.254-.012a1.7 1.7 0 0 1 .16.008c-.105-.008-.203-.012-.289-.016.035 0 .07.004.106.004-.102-.004-.235-.012-.403-.02l-.047-.003h.028c-.035 0-.07 0-.106-.004h.028a9.58 9.58 0 0 0-.164-.008c-.036-.004-.075-.004-.114-.008h-.004c-2.257-.113-8.777-.445-25.613-1.3-24.566-1.282-44.3 19.23-42.945 42.937 1.437 28.554 1.394 26.894 1.394 28.195 0 17.953-16.925 28.57-31.832 25.086a7.54 7.54 0 0 0-9.054 5.629 7.54 7.54 0 0 0 5.629 9.055c24.312 5.668 51.445-12.575 50.285-42.032-1.442-28.265-1.407-27.101-1.407-28.054 0-9.598 5.278-17.992 13.075-22.434v170.145c0 7.808-6.57 12.644-12.664 12.644-6.09 0-.723.945-92.891-54.629a27.703 27.703 0 0 0-28.867 0c-92.067 55.512-86.77 54.63-92.89 54.63-6.09 0-12.665-4.837-12.665-12.645V314.125c8.05 4.582 13.5 13.367 13.035 23.79l-1.355 26.687c-2 38 45.32 58.21 71.222 29.507l17.91-19.84c10.215-11.312 28.016-11.445 38.356 0l11.254 12.473c2.785 3.086 7.559 3.328 10.645.543a7.532 7.532 0 0 0 .542-10.652c-6.949-6-16.84-25.961-41.62-25.961a40.967 40.967 0 0 0-30.364 13.496l-17.91 19.84c-16.34 18.105-46.402 5.62-44.98-18.633 1.44-28.527 1.417-27.195 1.417-28.816 0-22.352-18.328-41.875-43.23-40.809-28.828 1.457-26.707 1.387-27.96 1.387-23.517 0-34.731-29.137-17.138-45.016l19.84-17.91c18-16.25 17.969-44.508 0-60.73l-19.84-17.91c-17.71-15.985-6.406-45.973 18.637-44.989l26.684 1.367c24.593 1.262 44.285-19.23 42.949-42.949l-.824-16.07c-.211-4.16-3.762-7.367-7.91-7.149-4.153.211-7.36 3.75-7.149 7.91l.824 16.082c.692 15.586-11.894 27.793-27.117 27.118-27.902-1.403-26.5-1.414-28.957-1.414-36.605 0-55.312 45.914-27.238 71.28l19.84 17.911c11.363 10.277 11.406 28.039 0 38.355l-19.84 17.91c-28.645 25.848-8.57 73.223 29.5 71.223l25.699-1.308V484.27c0 21.535 23.687 34.925 42.137 23.628l86.355-52.75c3.961-2.41 9.188-2.41 13.149 0l86.359 52.75c18.437 11.293 42.133-2.085 42.133-23.628V310.848l25.699 1.308c26.527 1.356 43.078-20.746 43.078-41.16 0-11.48-4.824-22.164-13.578-30.062zm0 0"/><path d="M364.82 297.07c-.066 0-.129-.004-.191-.007h.023c.051.003.106.007.168.007zM283 107.95a7.537 7.537 0 0 0-1.645-10.532C195.328 34.641 72.148 95.77 72.148 203.844c0 72.601 59.067 131.668 131.668 131.668 72.602 0 131.668-59.067 131.668-131.668 0-30.942-10.945-61.008-30.824-84.66a7.537 7.537 0 1 0-11.539 9.699c17.594 20.941 27.285 47.562 27.285 74.96 0 64.29-52.304 116.594-116.59 116.594-64.289 0-116.593-52.304-116.593-116.593s52.304-116.59 116.593-116.59c24.88 0 48.622 7.726 68.649 22.344A7.541 7.541 0 0 0 283 107.949zm0 0"/><path d="M165.79 253.438c-12.817 0-23.243 10.425-23.243 23.242 0 12.816 10.426 23.242 23.242 23.242h76.055c12.816 0 23.242-10.426 23.242-23.242 0-12.817-10.426-23.243-23.242-23.243h-14.676V125.45c0-10.922-11.184-17.683-21.55-17.683-4.165 0-8.048 1.406-11.243 4.074l-28.113 21.441c-5.719 3.739-9.25 10.418-9.25 17.535 0 11.082 7.933 20.098 17.683 20.098 2.07 0 4.098-.39 5.993-1.133v83.653h-14.899zm25.32-106.926a7.535 7.535 0 0 0-8.215 1.633l-7.485 7.484a1.19 1.19 0 0 1-.715.21c-1.027 0-2.605-2.25-2.605-5.023 0-2.004 1.023-4.043 2.492-4.96 2.938-1.84 29.266-23.012 31.035-23.012 3.492 0 6.281 1.84 6.477 2.605v135.528a7.537 7.537 0 0 0 7.535 7.535h22.215c4.504 0 8.164 3.664 8.164 8.168s-3.66 8.168-8.164 8.168h-76.055c-4.5 0-8.164-3.664-8.164-8.168s3.664-8.168 8.164-8.168h22.438a7.537 7.537 0 0 0 7.535-7.535V153.473a7.532 7.532 0 0 0-4.653-6.961zm0 0"/></symbol></svg>